<svg id="visual" viewBox="0 0 960 150" width="960" height="150" xmlns="http://www.w3.org/2000/svg" version="1.1"><rect x="0" y="0" width="960" height="150" fill="transparent"></rect><path d="M0 82L17.8 78C35.7 74 71.3 66 106.8 57.7C142.3 49.3 177.7 40.7 213.2 40.7C248.7 40.7 284.3 49.3 320 48.7C355.7 48 391.3 38 426.8 40.3C462.3 42.7 497.7 57.3 533.2 67.2C568.7 77 604.3 82 640 81C675.7 80 711.3 73 746.8 58.5C782.3 44 817.7 22 853.2 15.7C888.7 9.3 924.3 18.7 942.2 23.3L960 28L960 151L942.2 151C924.3 151 888.7 151 853.2 151C817.7 151 782.3 151 746.8 151C711.3 151 675.7 151 640 151C604.3 151 568.7 151 533.2 151C497.7 151 462.3 151 426.8 151C391.3 151 355.7 151 320 151C284.3 151 248.7 151 213.2 151C177.7 151 142.3 151 106.8 151C71.3 151 35.7 151 17.8 151L0 151Z" fill="#fa7268"></path><path d="M0 43L17.8 55.5C35.7 68 71.3 93 106.8 93.8C142.3 94.7 177.7 71.3 213.2 69C248.7 66.7 284.3 85.3 320 93C355.7 100.7 391.3 97.3 426.8 89.8C462.3 82.3 497.7 70.7 533.2 62.8C568.7 55 604.3 51 640 58.7C675.7 66.3 711.3 85.7 746.8 87.5C782.3 89.3 817.7 73.7 853.2 68.3C888.7 63 924.3 68 942.2 70.5L960 73L960 151L942.2 151C924.3 151 888.7 151 853.2 151C817.7 151 782.3 151 746.8 151C711.3 151 675.7 151 640 151C604.3 151 568.7 151 533.2 151C497.7 151 462.3 151 426.8 151C391.3 151 355.7 151 320 151C284.3 151 248.7 151 213.2 151C177.7 151 142.3 151 106.8 151C71.3 151 35.7 151 17.8 151L0 151Z" fill="#e34c67"></path><path d="M0 82L17.8 82.2C35.7 82.3 71.3 82.7 106.8 92.2C142.3 101.7 177.7 120.3 213.2 122.5C248.7 124.7 284.3 110.3 320 108C355.7 105.7 391.3 115.3 426.8 114.3C462.3 113.3 497.7 101.7 533.2 94.7C568.7 87.7 604.3 85.3 640 92.2C675.7 99 711.3 115 746.8 125.3C782.3 135.7 817.7 140.3 853.2 143C888.7 145.7 924.3 146.3 942.2 146.7L960 147L960 151L942.2 151C924.3 151 888.7 151 853.2 151C817.7 151 782.3 151 746.8 151C711.3 151 675.7 151 640 151C604.3 151 568.7 151 533.2 151C497.7 151 462.3 151 426.8 151C391.3 151 355.7 151 320 151C284.3 151 248.7 151 213.2 151C177.7 151 142.3 151 106.8 151C71.3 151 35.7 151 17.8 151L0 151Z" fill="#c62368"></path></svg>